<?xml version="1.0" encoding="UTF-8" standalone="no"?>
<!DOCTYPE svg PUBLIC "-//W3C//DTD SVG 1.1//EN"
 "http://www.w3.org/Graphics/SVG/1.1/DTD/svg11.dtd">
<!-- Generated by graphviz version 2.43.0 (0)
 -->
<!-- Title: volcano41 Pages: 1 -->
<svg width="958pt" height="482pt"
 viewBox="0.00 0.00 958.00 482.00" xmlns="http://www.w3.org/2000/svg" xmlns:xlink="http://www.w3.org/1999/xlink">
<g id="graph0" class="graph" transform="scale(1 1) rotate(0) translate(4 478)">
<title>volcano41</title>
<polygon fill="white" stroke="transparent" points="-4,4 -4,-478 954,-478 954,4 -4,4"/>
<text text-anchor="middle" x="475" y="-461.2" font-family="Helvetica,sans-Serif" font-size="11.00">Isogeny volcano, m = 41 (solid: computed + verified; dashed: implied by theory, not computed)</text>
<!-- crater -->
<g id="node1" class="node">
<title>crater</title>
<path fill="#fbe0d3" stroke="#52514e" d="M618.5,-454C618.5,-454 401.5,-454 401.5,-454 395.5,-454 389.5,-448 389.5,-442 389.5,-442 389.5,-414 389.5,-414 389.5,-408 395.5,-402 401.5,-402 401.5,-402 618.5,-402 618.5,-402 624.5,-402 630.5,-408 630.5,-414 630.5,-414 630.5,-442 630.5,-442 630.5,-448 624.5,-454 618.5,-454"/>
<text text-anchor="middle" x="510" y="-442" font-family="Helvetica,sans-Serif" font-size="10.00">CRATER &#160;f = 1, &#160;End = O_K = Z[(1+sqrt(&#45;7))/2]</text>
<text text-anchor="middle" x="510" y="-431" font-family="Helvetica,sans-Serif" font-size="10.00">E_1 : y^2+xy = x^3+1 &#160;&#160;(b = 1, j = 1)</text>
<text text-anchor="middle" x="510" y="-420" font-family="Helvetica,sans-Serif" font-size="10.00">h = 1 curve; Frobenius tau (deg 2) in End</text>
<text text-anchor="middle" x="510" y="-409" font-family="Helvetica,sans-Serif" font-size="10.00">23&#45;cycle 1, 11&#45;cycle 1 (measured)</text>
</g>
<!-- s409 -->
<g id="node2" class="node">
<title>s409</title>
<path fill="#d2f0e4" stroke="#52514e" d="M274,-306C274,-306 12,-306 12,-306 6,-306 0,-300 0,-294 0,-294 0,-277 0,-277 0,-271 6,-265 12,-265 12,-265 274,-265 274,-265 280,-265 286,-271 286,-277 286,-277 286,-294 286,-294 286,-300 280,-306 274,-306"/>
<text text-anchor="middle" x="143" y="-294" font-family="Helvetica,sans-Serif" font-size="10.00">409&#45;floor seed &#160;f = 409</text>
<text text-anchor="middle" x="143" y="-283" font-family="Helvetica,sans-Serif" font-size="10.00">E_b, b = 5031829425</text>
<text text-anchor="middle" x="143" y="-272" font-family="Helvetica,sans-Serif" font-size="10.00">#E = N (ellcard); 23&#45;cycle 205, 11&#45;cycle 82 (measured)</text>
</g>
<!-- crater&#45;&gt;s409 -->
<g id="edge1" class="edge">
<title>crater&#45;&gt;s409</title>
<path fill="none" stroke="#1baf7a" stroke-width="1.8" d="M389.43,-425.53C288.96,-421.45 156.97,-408.44 123,-369 110.26,-354.21 116.06,-332.63 124.62,-315.26"/>
<polygon fill="#1baf7a" stroke="#1baf7a" stroke-width="1.8" points="127.89,-316.57 129.57,-306.11 121.73,-313.24 127.89,-316.57"/>
<text text-anchor="middle" x="234.5" y="-361.8" font-family="Helvetica,sans-Serif" font-size="9.00">409, descending</text>
<text text-anchor="middle" x="234.5" y="-351.8" font-family="Helvetica,sans-Serif" font-size="9.00">kernel x&#45;coords in F_2^8364 (twist; c^204 = &#45;1)</text>
<text text-anchor="middle" x="234.5" y="-341.8" font-family="Helvetica,sans-Serif" font-size="9.00">char&#45;2 Velu, b&#39; = 1+v+v^2</text>
</g>
<!-- f409 -->
<g id="node3" class="node">
<title>f409</title>
<path fill="#e8f7f0" stroke="#52514e" d="M480,-179C480,-179 268,-179 268,-179 262,-179 256,-173 256,-167 256,-167 256,-150 256,-150 256,-144 262,-138 268,-138 268,-138 480,-138 480,-138 486,-138 492,-144 492,-150 492,-150 492,-167 492,-167 492,-173 486,-179 480,-179"/>
<text text-anchor="middle" x="374" y="-167" font-family="Helvetica,sans-Serif" font-size="10.00">409&#45;FLOOR: 410 curves = 10 Galois orbits</text>
<text text-anchor="middle" x="374" y="-156" font-family="Helvetica,sans-Serif" font-size="10.00">all 410 enumerated, all #E = N (floor409.txt)</text>
<text text-anchor="middle" x="374" y="-145" font-family="Helvetica,sans-Serif" font-size="10.00">30 sampled for rho (ids 1&#45;30)</text>
</g>
<!-- crater&#45;&gt;f409 -->
<g id="edge3" class="edge">
<title>crater&#45;&gt;f409</title>
<path fill="none" stroke="#52514e" stroke-dasharray="5,2" d="M475.31,-401.91C447.79,-379.94 410.92,-345.41 392,-306 374.04,-268.6 371.6,-219.9 372.23,-189.16"/>
<polygon fill="#52514e" stroke="#52514e" points="375.73,-189.2 372.56,-179.09 368.74,-188.97 375.73,-189.2"/>
<text text-anchor="middle" x="442.5" y="-288.3" font-family="Helvetica,sans-Serif" font-size="9.00">409 other descending</text>
<text text-anchor="middle" x="442.5" y="-278.3" font-family="Helvetica,sans-Serif" font-size="9.00">(410 in total)</text>
</g>
<!-- s1721 -->
<g id="node4" class="node">
<title>s1721</title>
<path fill="#dcd8f2" stroke="#52514e" d="M791,-306C791,-306 523,-306 523,-306 517,-306 511,-300 511,-294 511,-294 511,-277 511,-277 511,-271 517,-265 523,-265 523,-265 791,-265 791,-265 797,-265 803,-271 803,-277 803,-277 803,-294 803,-294 803,-300 797,-306 791,-306"/>
<text text-anchor="middle" x="657" y="-294" font-family="Helvetica,sans-Serif" font-size="10.00">1721&#45;floor seed &#160;f = 1721</text>
<text text-anchor="middle" x="657" y="-283" font-family="Helvetica,sans-Serif" font-size="10.00">E_b, b = 14893930241</text>
<text text-anchor="middle" x="657" y="-272" font-family="Helvetica,sans-Serif" font-size="10.00">#E = N (ellcard); 23&#45;cycle 574, 11&#45;cycle 861 (measured)</text>
</g>
<!-- crater&#45;&gt;s1721 -->
<g id="edge2" class="edge">
<title>crater&#45;&gt;s1721</title>
<path fill="none" stroke="#4a3aa7" stroke-width="1.8" d="M536.28,-401.88C562.29,-377.02 601.97,-339.1 628.67,-313.58"/>
<polygon fill="#4a3aa7" stroke="#4a3aa7" stroke-width="1.8" points="631.36,-315.85 636.17,-306.41 626.52,-310.79 631.36,-315.85"/>
<text text-anchor="middle" x="702" y="-361.8" font-family="Helvetica,sans-Serif" font-size="9.00">1721, descending</text>
<text text-anchor="middle" x="702" y="-351.8" font-family="Helvetica,sans-Serif" font-size="9.00">kernel x&#45;coords in F_2^8815 (E; c^215 = 1)</text>
<text text-anchor="middle" x="702" y="-341.8" font-family="Helvetica,sans-Serif" font-size="9.00">char&#45;2 Velu, b&#39; = 1+v+v^2</text>
</g>
<!-- f1721 -->
<g id="node5" class="node">
<title>f1721</title>
<path fill="#eeecf9" stroke="#52514e" d="M770.5,-179C770.5,-179 543.5,-179 543.5,-179 537.5,-179 531.5,-173 531.5,-167 531.5,-167 531.5,-150 531.5,-150 531.5,-144 537.5,-138 543.5,-138 543.5,-138 770.5,-138 770.5,-138 776.5,-138 782.5,-144 782.5,-150 782.5,-150 782.5,-167 782.5,-167 782.5,-173 776.5,-179 770.5,-179"/>
<text text-anchor="middle" x="657" y="-167" font-family="Helvetica,sans-Serif" font-size="10.00">1721&#45;FLOOR: 1,722 curves = 42 Galois orbits</text>
<text text-anchor="middle" x="657" y="-156" font-family="Helvetica,sans-Serif" font-size="10.00">all 1,722 enumerated, all #E = N (floor1721.txt)</text>
<text text-anchor="middle" x="657" y="-145" font-family="Helvetica,sans-Serif" font-size="10.00">30 orbits sampled for rho (ids 101&#45;130)</text>
</g>
<!-- crater&#45;&gt;f1721 -->
<g id="edge4" class="edge">
<title>crater&#45;&gt;f1721</title>
<path fill="none" stroke="#52514e" stroke-dasharray="5,2" d="M630.88,-418.22C704.11,-410.26 788.07,-395.55 813,-369 860.98,-317.9 848.86,-260.23 798,-212 784.97,-199.64 768.76,-190.13 752.03,-182.84"/>
<polygon fill="#52514e" stroke="#52514e" points="753.28,-179.56 742.7,-179.01 750.62,-186.04 753.28,-179.56"/>
<text text-anchor="middle" x="896.5" y="-288.3" font-family="Helvetica,sans-Serif" font-size="9.00">1721 other descending</text>
<text text-anchor="middle" x="896.5" y="-278.3" font-family="Helvetica,sans-Serif" font-size="9.00">(1722 in total)</text>
</g>
<!-- s409&#45;&gt;f409 -->
<g id="edge5" class="edge">
<title>s409&#45;&gt;f409</title>
<path fill="none" stroke="#1baf7a" stroke-width="1.8" d="M159.54,-264.81C174.02,-248.66 196.4,-226.21 220,-212 240.22,-199.83 263.65,-190 286.04,-182.3"/>
<polygon fill="#1baf7a" stroke="#1baf7a" stroke-width="1.8" points="287.18,-185.61 295.56,-179.13 284.96,-178.97 287.18,-185.61"/>
<text text-anchor="middle" x="283" y="-224.8" font-family="Helvetica,sans-Serif" font-size="9.00">29, horizontal cycle</text>
<text text-anchor="middle" x="283" y="-214.8" font-family="Helvetica,sans-Serif" font-size="9.00">length 410 = h (measured)</text>
</g>
<!-- bottom -->
<g id="node6" class="node">
<title>bottom</title>
<path fill="#ecebe8" stroke="#52514e" d="M765,-52C765,-52 265,-52 265,-52 259,-52 253,-46 253,-40 253,-40 253,-12 253,-12 253,-6 259,0 265,0 265,0 765,0 765,0 771,0 777,-6 777,-12 777,-12 777,-40 777,-40 777,-46 771,-52 765,-52"/>
<text text-anchor="middle" x="515" y="-40" font-family="Helvetica,sans-Serif" font-size="10.00">BOTTOM &#160;f = 409 * 1721 = 703889</text>
<text text-anchor="middle" x="515" y="-29" font-family="Helvetica,sans-Serif" font-size="10.00">706,020 curves = 17,220 Galois orbits</text>
<text text-anchor="middle" x="515" y="-18" font-family="Helvetica,sans-Serif" font-size="10.00">82 scan hits (all bottom by exclusion); 30 orbits sampled (ids 201&#45;230)</text>
<text text-anchor="middle" x="515" y="-7" font-family="Helvetica,sans-Serif" font-size="10.00">e.g. b = 5997019219, 37744445183, ... (sample.csv); 23&#45;cycle 2870, 11&#45;cycle 1722 on all 30 (measured)</text>
</g>
<!-- f409&#45;&gt;bottom -->
<g id="edge7" class="edge">
<title>f409&#45;&gt;bottom</title>
<path fill="none" stroke="#52514e" stroke-dasharray="5,2" d="M395.11,-137.96C417.62,-117.12 453.65,-83.79 480.33,-59.08"/>
<polygon fill="#52514e" stroke="#52514e" points="482.98,-61.4 487.94,-52.04 478.23,-56.27 482.98,-61.4"/>
<text text-anchor="middle" x="504" y="-97.8" font-family="Helvetica,sans-Serif" font-size="9.00">1721, descending</text>
<text text-anchor="middle" x="504" y="-87.8" font-family="Helvetica,sans-Serif" font-size="9.00">(each floor curve: 1722)</text>
</g>
<!-- s1721&#45;&gt;f1721 -->
<g id="edge6" class="edge">
<title>s1721&#45;&gt;f1721</title>
<path fill="none" stroke="#4a3aa7" stroke-width="1.8" d="M657,-264.97C657,-244.72 657,-212.82 657,-189.4"/>
<polygon fill="#4a3aa7" stroke="#4a3aa7" stroke-width="1.8" points="660.5,-189.31 657,-179.31 653.5,-189.31 660.5,-189.31"/>
<text text-anchor="middle" x="723" y="-224.8" font-family="Helvetica,sans-Serif" font-size="9.00">29, horizontal cycle</text>
<text text-anchor="middle" x="723" y="-214.8" font-family="Helvetica,sans-Serif" font-size="9.00">length 1722 = h (measured)</text>
</g>
<!-- f1721&#45;&gt;bottom -->
<g id="edge8" class="edge">
<title>f1721&#45;&gt;bottom</title>
<path fill="none" stroke="#52514e" stroke-dasharray="5,2" d="M635.74,-137.96C613.07,-117.12 576.79,-83.79 549.91,-59.08"/>
<polygon fill="#52514e" stroke="#52514e" points="551.98,-56.23 542.25,-52.04 547.24,-61.39 551.98,-56.23"/>
<text text-anchor="middle" x="651" y="-97.8" font-family="Helvetica,sans-Serif" font-size="9.00">409, descending</text>
<text text-anchor="middle" x="651" y="-87.8" font-family="Helvetica,sans-Serif" font-size="9.00">(each floor curve: 410)</text>
</g>
</g>
</svg>
